<svg xmlns="http://www.w3.org/2000/svg" width="27.957" height="33.484" viewBox="0 0 27.957 33.484">
  <g id="Android_Pay" data-name="Android Pay" transform="translate(-0.834 -0.699)">
    <path id="path3352" d="M9.87,19.187a1.163,1.163,0,0,1-1.153-1.171V15.325H7.166v2.691a1.152,1.152,0,1,1-2.3,0V15.325H3.869a1.163,1.163,0,0,1-1.153-1.171V6.433H13.142v7.721a1.163,1.163,0,0,1-1.152,1.171h-.968v2.691A1.164,1.164,0,0,1,9.87,19.187Zm4.83-5.7a1.163,1.163,0,0,1-1.152-1.171V7.4a1.152,1.152,0,1,1,2.3,0v4.92A1.164,1.164,0,0,1,14.7,13.49Zm-13.549,0A1.163,1.163,0,0,1,0,12.319V7.4a1.162,1.162,0,0,1,1.152-1.17A1.162,1.162,0,0,1,2.3,7.4v4.92A1.163,1.163,0,0,1,1.152,13.49Zm11.98-7.466H2.73l0-.058c0-.034,0-.068,0-.1a4.334,4.334,0,0,1,.129-1.045A4.8,4.8,0,0,1,5.322,1.781l-.8-1.5A.19.19,0,0,1,4.6.023.183.183,0,0,1,4.687,0a.188.188,0,0,1,.165.1L5.66,1.617A5.712,5.712,0,0,1,10.2,1.61L11.007.1a.188.188,0,0,1,.165-.1.186.186,0,0,1,.089.023.191.191,0,0,1,.075.257l-.795,1.492a4.757,4.757,0,0,1,2.52,3.212,4.136,4.136,0,0,1,.071.473v.564ZM10.3,3.154a.5.5,0,1,0,.49.5A.494.494,0,0,0,10.3,3.154Zm-4.742,0a.5.5,0,1,0,.49.5A.494.494,0,0,0,5.558,3.154Z" transform="translate(5.822 0.699)"/>
    <path id="path3354" d="M20.963,11.878H20.5V10.527h.484a1.663,1.663,0,0,0,1.53-1.065l.291-.671L19.15.179h1.531l2.89,7.049L26.47.17h1.487L23.865,9.8A3.036,3.036,0,0,1,20.963,11.878ZM1.319,11.806H0V.179H1.319V1.2A4.087,4.087,0,0,1,4.24,0,4.384,4.384,0,0,1,7.428,1.364a4.722,4.722,0,0,1,1.308,3.3A4.709,4.709,0,0,1,7.428,7.948,4.392,4.392,0,0,1,4.24,9.311,4.056,4.056,0,0,1,1.319,8.1v3.7Zm2.824-10.5a3.243,3.243,0,0,0-2.727,1.44.529.529,0,0,0-.1.3V6.252a.5.5,0,0,0,.088.3A3.205,3.205,0,0,0,4.144,8,3.3,3.3,0,0,0,7.4,4.66,3.309,3.309,0,0,0,4.144,1.306Zm9.976,8a4.386,4.386,0,0,1-3.191-1.364,4.728,4.728,0,0,1-1.3-3.3,4.7,4.7,0,0,1,1.3-3.283A4.394,4.394,0,0,1,14.119,0,4.055,4.055,0,0,1,17.04,1.2V.179h1.319V9.123H17.04V8.1A4.087,4.087,0,0,1,14.119,9.3Zm.1-8.006a3.309,3.309,0,0,0-3.263,3.345A3.314,3.314,0,0,0,14.216,8,3.257,3.257,0,0,0,16.943,6.53a.539.539,0,0,0,.1-.3V3.05a.527.527,0,0,0-.074-.268l0-.008-.006-.011,0-.008A3.149,3.149,0,0,0,14.216,1.3Z" transform="translate(0.834 22.305)"/>
  </g>
</svg>
