<svg xmlns="http://www.w3.org/2000/svg" width="51.111" height="23.607" viewBox="0 0 51.111 23.607">
  <g id="Apple_Pay" data-name="Apple Pay" transform="translate(0 0)">
    <path id="Shape" d="M41.295,23.607h0l-.413-.968a10.573,10.573,0,0,0,1.031-.522,5.632,5.632,0,0,0,1.108-.843,10.222,10.222,0,0,0,1.018-1.18,8.29,8.29,0,0,0,.992-1.776,1.96,1.96,0,0,0,.155-.522,1.457,1.457,0,0,0-.155-.521L40.574,6.224h1.288l3.144,7.747c.175.438.34.885.49,1.328.163.478.3.889.412,1.255h.051c.118-.358.253-.76.412-1.229.151-.448.325-.92.515-1.4l2.938-7.7h1.288L47.53,14.965c-.325.837-.667,1.685-1.018,2.52-.29.693-.615,1.379-.967,2.037a14.547,14.547,0,0,1-.991,1.6,6.729,6.729,0,0,1-1.121,1.217,6.105,6.105,0,0,1-1.328.906c-.4.19-.673.311-.81.361Zm-6.826-5.19a4.12,4.12,0,0,1-1.585-.285,3.251,3.251,0,0,1-1.121-.745,3,3,0,0,1-.657-1.055,3.443,3.443,0,0,1-.219-1.193,3.632,3.632,0,0,1,1.842-3.252,10.132,10.132,0,0,1,5.24-1.094c.1,0,.208,0,.314,0v-.322a7.649,7.649,0,0,0-.091-1.081,3.291,3.291,0,0,0-.4-1.155,2.551,2.551,0,0,0-.927-.919,3.249,3.249,0,0,0-1.676-.373,5.612,5.612,0,0,0-3.013.895l-.387-.869a5.829,5.829,0,0,1,1.7-.782,6.956,6.956,0,0,1,1.8-.236h.031a4.576,4.576,0,0,1,2.1.422A3.461,3.461,0,0,1,38.7,7.466a3.952,3.952,0,0,1,.632,1.5,8.445,8.445,0,0,1,.167,1.652v4.693c0,.482.008.966.025,1.44a9.3,9.3,0,0,0,.155,1.391H38.54l-.18-1.688h-.051a4.321,4.321,0,0,1-.593.695,4.636,4.636,0,0,1-.837.633,4.507,4.507,0,0,1-1.082.46A4.822,4.822,0,0,1,34.469,18.417Zm3.418-6.659c-.554,0-1.11.026-1.653.078a7.729,7.729,0,0,0-1.971.436,3.791,3.791,0,0,0-1.495.98,2.445,2.445,0,0,0-.592,1.714,2.252,2.252,0,0,0,.746,1.863,2.632,2.632,0,0,0,1.675.6,4.2,4.2,0,0,0,1.34-.2,3.553,3.553,0,0,0,1.03-.534,3.423,3.423,0,0,0,.734-.757,3.52,3.52,0,0,0,.452-.869,3.25,3.25,0,0,0,.129-.721V11.763C38.169,11.76,38.047,11.758,37.887,11.758ZM5,18.4c-1.187,0-2.084-1.1-2.973-2.329A11.3,11.3,0,0,1,.158,11.635,6.993,6.993,0,0,1,.806,6.8,4.776,4.776,0,0,1,4.791,4.494h.05a5.556,5.556,0,0,1,1.933.472l.006,0,.008,0a3.762,3.762,0,0,0,1.181.322,3.761,3.761,0,0,0,1.152-.323,6.459,6.459,0,0,1,2.228-.535,2.723,2.723,0,0,1,.306.014,4.547,4.547,0,0,1,3.522,1.826h0l-.006,0a4.107,4.107,0,0,0-2.076,3.5A4.1,4.1,0,0,0,15.674,13.5l.006,0,0,.006a10.04,10.04,0,0,1-1.33,2.611c-.751,1.048-1.6,2.236-2.948,2.261h-.057a3.421,3.421,0,0,1-1.431-.345l-.006,0-.005,0a3.933,3.933,0,0,0-1.679-.383,4.184,4.184,0,0,0-1.767.4,3.717,3.717,0,0,1-1.388.355Zm16.618-.259H20.4V1.606c.527-.087,1.082-.162,1.65-.224a18.167,18.167,0,0,1,1.887-.1h.1a8.837,8.837,0,0,1,2.667.36,4.84,4.84,0,0,1,1.841,1.03,4.207,4.207,0,0,1,.967,1.416,4.83,4.83,0,0,1,.347,1.887,5.1,5.1,0,0,1-.476,2.259,4.755,4.755,0,0,1-1.3,1.626,5.535,5.535,0,0,1-1.959.98,9.076,9.076,0,0,1-2.473.323,10.1,10.1,0,0,1-2.034-.174v7.151Zm2.37-15.866a13.8,13.8,0,0,0-1.417.062c-.415.044-.727.089-.952.137V9.949a5.374,5.374,0,0,0,.979.173c.352.033.741.05,1.158.05A5.566,5.566,0,0,0,27.349,9.13a3.729,3.729,0,0,0,1.275-3.054,3.962,3.962,0,0,0-.336-1.688,3.038,3.038,0,0,0-.952-1.18,4.466,4.466,0,0,0-1.469-.695A6.964,6.964,0,0,0,23.987,2.276ZM8.01,4.248h0c-.054,0-.116,0-.193-.007A3.726,3.726,0,0,1,8.837,1.395,4.371,4.371,0,0,1,11.674,0a3.942,3.942,0,0,1-1,2.938A3.674,3.674,0,0,1,8.01,4.248Z"/>
  </g>
</svg>
