<svg xmlns="http://www.w3.org/2000/svg" xmlns:xlink="http://www.w3.org/1999/xlink" width="123" height="38" viewBox="0 0 123 38">
  <defs>
    <clipPath id="clip-path">
      <rect width="123" height="38" fill="none"/>
    </clipPath>
  </defs>
  <g id="Badge_AppStore" data-name="Badge – AppStore" clip-path="url(#clip-path)">
    <g id="Badge">
      <rect id="button" width="123" height="38" rx="4"/>
      <path id="Download_on_the" data-name="Download on the" d="M70.574,6.433A2.09,2.09,0,0,1,68.412,4.1a2.116,2.116,0,0,1,2.124-2.373A2.011,2.011,0,0,1,72.59,3.992v.321H69.339V4.37a1.218,1.218,0,0,0,1.252,1.319,1.05,1.05,0,0,0,1.078-.656h.876A1.85,1.85,0,0,1,70.574,6.433Zm-.042-3.959a1.184,1.184,0,0,0-1.189,1.189h2.33A1.126,1.126,0,0,0,70.531,2.474ZM48.067,6.433a2.1,2.1,0,0,1-2.174-2.352,2.127,2.127,0,0,1,2.174-2.356,2.084,2.084,0,0,1,1.581.635,2.482,2.482,0,0,1,.589,1.721A2.1,2.1,0,0,1,48.067,6.433Zm0-3.946c-.779,0-1.244.6-1.244,1.595s.465,1.59,1.244,1.59,1.239-.595,1.239-1.59S48.843,2.487,48.067,2.487ZM29.1,6.433a2.1,2.1,0,0,1-2.174-2.352A2.127,2.127,0,0,1,29.1,1.725a2.084,2.084,0,0,1,1.581.635,2.482,2.482,0,0,1,.589,1.721A2.1,2.1,0,0,1,29.1,6.433Zm0-3.946c-.778,0-1.243.6-1.243,1.595s.465,1.59,1.243,1.59,1.239-.595,1.239-1.59S29.88,2.487,29.1,2.487ZM8.45,6.433A2.1,2.1,0,0,1,6.276,4.082,2.127,2.127,0,0,1,8.45,1.725a2.084,2.084,0,0,1,1.581.635,2.482,2.482,0,0,1,.589,1.721A2.1,2.1,0,0,1,8.45,6.433Zm0-3.946c-.779,0-1.244.6-1.244,1.595s.465,1.59,1.244,1.59,1.239-.595,1.239-1.59S9.226,2.487,8.45,2.487ZM39.559,6.424c-1.159,0-1.938-.943-1.938-2.347S38.4,1.738,39.55,1.738A1.553,1.553,0,0,1,41,2.546h.021V0h.913V6.378h-.888V5.6h-.016A1.581,1.581,0,0,1,39.559,6.424Zm.232-3.908c-.747,0-1.23.614-1.23,1.565s.483,1.565,1.23,1.565,1.231-.629,1.231-1.565S40.527,2.516,39.791,2.516ZM33.959,6.424a1.387,1.387,0,0,1-1.552-1.362c0-.8.607-1.268,1.755-1.341L35.4,3.65V3.295c0-.523-.343-.812-.965-.812a.883.883,0,0,0-.942.655h-.859a1.634,1.634,0,0,1,1.827-1.413c1.12,0,1.844.59,1.844,1.5V6.378h-.876V5.612H35.41A1.608,1.608,0,0,1,33.959,6.424ZM35.4,4.293l-1.117.077c-.622.038-.951.272-.951.676s.342.647.871.647a1.09,1.09,0,0,0,1.2-1.04ZM61.172,6.408c-.916,0-1.273-.347-1.273-1.239V2.508h-.635V1.785H59.9V.752h.913V1.785h.879v.724h-.879V5.075c0,.4.179.584.563.584a2.605,2.605,0,0,0,.313-.022v.724A2.668,2.668,0,0,1,61.172,6.408Zm2.85-.029H63.1V0h.91V2.559h.021a1.482,1.482,0,0,1,1.451-.824A1.543,1.543,0,0,1,67.1,3.442V6.377h-.918V3.621c0-.709-.36-1.1-1.014-1.1a1.114,1.114,0,0,0-1.147,1.227V6.378Zm-11.532,0h-.918V1.785h.876v.774h.017a1.488,1.488,0,0,1,1.45-.824,1.516,1.516,0,0,1,1.595,1.7V6.377h-.918V3.608c0-.721-.334-1.087-.994-1.087a1.076,1.076,0,0,0-1.108,1.205V6.378Zm-32.423,0h-.918V1.785h.876v.774h.017a1.488,1.488,0,0,1,1.451-.824,1.515,1.515,0,0,1,1.594,1.7V6.377h-.918V3.608c0-.721-.334-1.087-.994-1.087a1.076,1.076,0,0,0-1.108,1.205V6.378Zm-6.276,0h-.943L11.579,1.785h.913l.854,3.638h.017l.973-3.638h.879l.977,3.638h.017l.854-3.638h.905L16.7,6.377h-.947l-.977-3.46H14.76l-.968,3.46Zm11.769,0h-.918V0h.918V6.377Zm-23.374,0H0V.274H2.187a2.844,2.844,0,0,1,2.126.8,3.177,3.177,0,0,1,.762,2.242A3.211,3.211,0,0,1,4.313,5.57,2.83,2.83,0,0,1,2.187,6.378ZM.948,1.091V5.557H2.1c1.3,0,2.013-.793,2.013-2.233S3.4,1.091,2.1,1.091Z" transform="translate(38.83 6.242)" fill="#fff"/>
      <path id="App_Store" data-name="App Store" d="M23.541,14.939H21.767V3.116h1.709V4.587h.041a3.122,3.122,0,0,1,2.83-1.562c2.28,0,3.753,1.778,3.753,4.53A5.089,5.089,0,0,1,29.08,10.85a3.369,3.369,0,0,1-2.694,1.235,3.023,3.023,0,0,1-2.812-1.545h-.032v4.4ZM25.9,4.53c-1.41,0-2.363,1.216-2.372,3.026.008,1.81.961,3.026,2.372,3.026,1.45,0,2.388-1.188,2.388-3.026S27.346,4.53,25.9,4.53Zm-12.3,10.41H11.82V3.116h1.709V4.587h.041A3.12,3.12,0,0,1,16.4,3.026c2.28,0,3.753,1.778,3.753,4.53a5.112,5.112,0,0,1-1.02,3.295,3.368,3.368,0,0,1-2.693,1.235,3.023,3.023,0,0,1-2.813-1.545h-.033v4.4ZM15.949,4.53c-1.41,0-2.363,1.216-2.372,3.026.008,1.81.961,3.026,2.372,3.026,1.45,0,2.388-1.188,2.388-3.026S17.4,4.53,15.949,4.53Zm23.978,7.663c-2.619,0-4.384-1.368-4.5-3.484h1.807c.13,1.159,1.263,1.938,2.822,1.938,1.483,0,2.559-.767,2.559-1.823,0-.914-.65-1.464-2.174-1.84l-1.529-.368c-2.165-.522-3.173-1.533-3.173-3.181C35.74,1.412,37.505,0,40.033,0c2.49,0,4.2,1.38,4.261,3.434H42.511c-.105-1.166-1.064-1.889-2.5-1.889-1.411,0-2.4.726-2.4,1.767,0,.832.621,1.325,2.142,1.7l1.3.319c2.4.568,3.426,1.546,3.426,3.271a3.214,3.214,0,0,1-1.229,2.623A5.332,5.332,0,0,1,39.927,12.192Zm30.932-.09c-2.577,0-4.178-1.73-4.178-4.514S68.292,3,70.786,3a3.786,3.786,0,0,1,2.9,1.183,4.666,4.666,0,0,1,1.073,3.2v.622H68.471v.106a2.625,2.625,0,0,0,.664,1.852,2.35,2.35,0,0,0,1.757.7A2.057,2.057,0,0,0,72.977,9.4h1.692C74.417,10.99,72.849,12.1,70.859,12.1Zm-.082-7.654a2.288,2.288,0,0,0-2.3,2.3h4.505A2.456,2.456,0,0,0,72.35,5.08,2.117,2.117,0,0,0,70.777,4.449ZM55.438,12.1a4.048,4.048,0,0,1-3.064-1.225,4.777,4.777,0,0,1-1.139-3.322,4.784,4.784,0,0,1,1.141-3.323,4.419,4.419,0,0,1,6.119,0,4.8,4.8,0,0,1,1.138,3.326A4.784,4.784,0,0,1,58.5,10.877,4.034,4.034,0,0,1,55.438,12.1Zm0-7.629c-1.505,0-2.4,1.152-2.4,3.082s.9,3.074,2.4,3.074,2.4-1.149,2.4-3.074S56.938,4.473,55.438,4.473Zm-6.3,7.58c-1.771,0-2.461-.672-2.461-2.4V4.514H45.45v-1.4h1.227v-2h1.766v2h1.7v1.4h-1.7V9.477c0,.77.346,1.129,1.088,1.129a6.033,6.033,0,0,0,.6-.04v1.4A5.082,5.082,0,0,1,49.138,12.053ZM1.905,12H0L4.261.2H6.239l4.26,11.8H8.562L7.482,8.807h-4.5L1.905,12Zm3.3-9.837L3.451,7.335H7.016L5.258,2.159ZM63.03,12H61.256V3.116h1.692v1.5h.033a2.134,2.134,0,0,1,2.142-1.586,2.959,2.959,0,0,1,.622.057v1.66a2.588,2.588,0,0,0-.81-.106A1.862,1.862,0,0,0,63.03,6.7v5.3Z" transform="translate(37.213 18.004)" fill="#fff"/>
      <path id="logo" d="M6.305,24.2c-1.5,0-2.628-1.449-3.75-3.063A15.211,15.211,0,0,1,.2,15.3a9.543,9.543,0,0,1,.817-6.36A5.974,5.974,0,0,1,6.04,5.909H6.1a6.789,6.789,0,0,1,2.443.623,4.631,4.631,0,0,0,1.5.431A4.72,4.72,0,0,0,11.5,6.538a7.88,7.88,0,0,1,2.809-.7c.13,0,.26.006.385.019a5.649,5.649,0,0,1,4.441,2.4l-.019.012a5.425,5.425,0,0,0-2.6,4.6,5.324,5.324,0,0,0,3.254,4.891l.005,0-.008.025A13.3,13.3,0,0,1,18.1,21.2c-.947,1.378-2.02,2.94-3.716,2.972h-.074a4.2,4.2,0,0,1-1.807-.453,4.865,4.865,0,0,0-2.129-.508,5.172,5.172,0,0,0-2.234.524,4.625,4.625,0,0,1-1.747.466ZM10.1,5.587c-.082,0-.165,0-.246-.01a5.033,5.033,0,0,1,1.289-3.744A5.44,5.44,0,0,1,14.724,0a5.332,5.332,0,0,1-1.265,3.865A4.567,4.567,0,0,1,10.1,5.587Z" transform="translate(9.715 5.352)" fill="#fff"/>
    </g>
  </g>
</svg>
