<svg xmlns="http://www.w3.org/2000/svg" width="25" height="25" viewBox="0 0 25 25">
  <g id="_Icons_Social_Copy_Link" data-name="_Icons / Social / Copy Link" transform="translate(2.5 2.5)">
    <rect id="_Icons_Social_Copy_Link_background" data-name="_Icons / Social / Copy Link background" width="20" height="20" fill="rgba(0,0,0,0)"/>
    <path id="Icon" d="M5.765,25A5.721,5.721,0,0,1,0,19.218a6.507,6.507,0,0,1,1.947-4.559L6.813,9.795A6.563,6.563,0,0,1,11.4,7.849a5.722,5.722,0,0,1,4.076,1.672A1.591,1.591,0,0,1,13.23,11.77a2.614,2.614,0,0,0-1.864-.745,3.3,3.3,0,0,0-2.3.988L4.2,16.908a3.285,3.285,0,0,0-1.034,2.31,2.6,2.6,0,0,0,2.6,2.618c.046,0,.093,0,.139,0A3.365,3.365,0,0,0,8.09,20.8l2.8-2.8a4.8,4.8,0,0,0,2.76.786,1.976,1.976,0,0,0,1.315-.36l-4.622,4.621a6.523,6.523,0,0,1-4.289,1.945C5.957,25,5.861,25,5.765,25Zm7.829-7.849a5.721,5.721,0,0,1-4.075-1.671,1.591,1.591,0,0,1,2.251-2.25,2.605,2.605,0,0,0,1.862.747,3.3,3.3,0,0,0,2.3-.99L20.8,8.092a3.277,3.277,0,0,0,1.034-2.309,2.574,2.574,0,0,0-.76-1.855,2.546,2.546,0,0,0-1.834-.763c-.047,0-.095,0-.142,0A3.342,3.342,0,0,0,16.91,4.2L14.112,7a4.8,4.8,0,0,0-2.761-.786,1.977,1.977,0,0,0-1.311.357l4.619-4.617A6.529,6.529,0,0,1,18.948.006c.094,0,.19-.006.284-.006A5.723,5.723,0,0,1,25,5.783a6.51,6.51,0,0,1-1.947,4.559l-4.9,4.864A6.5,6.5,0,0,1,13.595,17.151Z" transform="translate(-2.5 -2.5)"/>
  </g>
</svg>
