<svg xmlns="http://www.w3.org/2000/svg" width="29" height="29" viewBox="0 0 29 29">
  <g id="_Icons_Social_Facebook" data-name="_Icons / Social / Facebook" transform="translate(4.5 4.5)">
    <rect id="_Icons_Social_Facebook_background" data-name="_Icons / Social / Facebook background" width="20" height="20" fill="rgba(0,0,0,0)"/>
    <path id="Icon" d="M27.4,0H1.6A1.6,1.6,0,0,0,0,1.6V27.4A1.6,1.6,0,0,0,1.6,29H15.5V17.785H11.725V13.4H15.5v-3.23c0-3.745,2.29-5.785,5.63-5.785a32.1,32.1,0,0,1,3.37.17V8.465H22.2c-1.82,0-2.175.86-2.175,2.13v2.8h4.35l-.565,4.39H20V29h7.4A1.6,1.6,0,0,0,29,27.4V1.6A1.6,1.6,0,0,0,27.4,0Z" transform="translate(-4.5 -4.5)"/>
  </g>
</svg>
