<svg xmlns="http://www.w3.org/2000/svg" xmlns:xlink="http://www.w3.org/1999/xlink" width="20" height="18.35" viewBox="0 0 20 18.35">
  <defs>
    <clipPath id="clip-path">
      <rect width="20" height="18.35" fill="none"/>
    </clipPath>
  </defs>
  <g id="Icons_24px_Like" data-name="Icons – 24px / Like" clip-path="url(#clip-path)">
    <path id="Icon" d="M10,18.35h0c-.022-.019-2.171-1.917-3.718-3.359-.121-.112-.267-.245-.437-.4C4.1,13.009,0,9.3,0,5.5A5.506,5.506,0,0,1,5.5,0,5.8,5.8,0,0,1,8.635.914l-.063.08H8.76A5.612,5.612,0,0,1,10,2.089l0-.006A5.775,5.775,0,0,1,11.24.994h.187c-.019-.025-.04-.052-.063-.08A5.8,5.8,0,0,1,14.5,0,5.506,5.506,0,0,1,20,5.5c0,3.8-4.1,7.51-5.844,9.091-.17.154-.317.287-.437.4-1.547,1.442-3.7,3.34-3.718,3.359ZM5.5,1.8A3.7,3.7,0,0,0,1.8,5.5c0,1.517.957,3.337,2.846,5.41.479.525.992,1.041,1.615,1.623.205.192.653.6.949.868l.3.273c.259.241.557.516.886.817l.135.123c.514.468,1.009.914,1.47,1.327.439-.392.934-.839,1.47-1.327l.136-.123c.352-.322.641-.589.886-.817l.279-.254c.3-.277.76-.691.969-.887.623-.582,1.136-1.1,1.615-1.623C17.242,8.837,18.2,7.017,18.2,5.5a3.7,3.7,0,0,0-3.7-3.7,4.044,4.044,0,0,0-2.318.73,3.66,3.66,0,0,0-.754.656L10,5.045,8.573,3.186a3.643,3.643,0,0,0-.754-.656A4.039,4.039,0,0,0,5.5,1.8Z" transform="translate(0 0)"/>
  </g>
</svg>
