<svg id="_Assets_Company_Logo" data-name="_Assets / Company Logo" xmlns="http://www.w3.org/2000/svg" width="60.852" height="16" viewBox="0 0 60.852 16">
  <path id="Acme" d="M22.582,16a8.308,8.308,0,0,1-4.031-.977,7.076,7.076,0,0,1-2.813-2.791,8.52,8.52,0,0,1-1.022-4.237,8.5,8.5,0,0,1,1.022-4.226A7.076,7.076,0,0,1,18.551.977,8.308,8.308,0,0,1,22.582,0a8.587,8.587,0,0,1,3.038.53,7.278,7.278,0,0,1,2.463,1.528,6.978,6.978,0,0,1,1.633,2.387l-2.436.928a4.676,4.676,0,0,0-1.851-2.162,5.312,5.312,0,0,0-2.847-.776A5.444,5.444,0,0,0,19.9,3.1a4.8,4.8,0,0,0-1.885,1.928,6.121,6.121,0,0,0-.689,2.965,6.145,6.145,0,0,0,.689,2.976A4.782,4.782,0,0,0,19.9,12.9a5.43,5.43,0,0,0,2.682.667,5.333,5.333,0,0,0,2.852-.77,4.66,4.66,0,0,0,1.846-2.157l2.436.929a6.991,6.991,0,0,1-1.633,2.375,7.261,7.261,0,0,1-2.463,1.529A8.587,8.587,0,0,1,22.582,16Zm11.328-.207h-2.6L32.556.219h3.638L40.2,11.227,44.246.219h3.639l1.235,15.573H46.53L45.5,3.495l-4.469,12.3H39.395L34.949,3.516,33.91,15.792Zm-31.211,0H0L5.736.219h3.18L14.65,15.791H11.964L10.729,12.33H3.922L2.7,15.792ZM7.331,2.731,4.72,10.092H9.942Zm53.52,13.062h-8.7V.219h8.7V2.544H54.8V6.859h5.353v2.3H54.8v4.292h6.053v2.336Z"/>
</svg>
