<svg xmlns="http://www.w3.org/2000/svg" width="91.545" height="22.262" viewBox="0 0 91.545 22.262">
  <g id="PayPal" transform="translate(0)">
    <path id="Shape" d="M2.841,14.014H.423A.423.423,0,0,1,.1,13.866a.418.418,0,0,1-.095-.337L2.054.591A.7.7,0,0,1,2.75,0H7.816a4.711,4.711,0,0,1,3.693,1.288,3.876,3.876,0,0,1,.646,3.257c-.5,3.182-2.442,4.8-5.766,4.8h-1.6a.707.707,0,0,0-.695.592l-.553,3.489A.7.7,0,0,1,2.841,14.014ZM5.58,2.8a.423.423,0,0,0-.417.355l-.536,3.38h.764c1.343,0,2.732,0,3.009-1.81a1.672,1.672,0,0,0-.246-1.406C7.708,2.8,6.845,2.8,5.93,2.8Z" transform="translate(26.415 4.979)"/>
    <path id="Shape-2" data-name="Shape" d="M4.032,9.8A3.807,3.807,0,0,1,.977,8.57a4.542,4.542,0,0,1-.9-3.712A5.574,5.574,0,0,1,5.489,0,3.4,3.4,0,0,1,8.354,1.013l.17.246L8.631.582A.424.424,0,0,1,9.048.227h2.426A.421.421,0,0,1,11.8.375a.417.417,0,0,1,.094.338L10.579,8.982a.7.7,0,0,1-.7.592H7.7a.42.42,0,0,1-.416-.487l.108-.671,0,0A4.742,4.742,0,0,1,4.032,9.8ZM6.064,2.562A2.71,2.71,0,0,0,3.346,4.887a2.044,2.044,0,0,0,.381,1.7,2.049,2.049,0,0,0,1.629.652A2.7,2.7,0,0,0,8.093,4.929a2.09,2.09,0,0,0-.41-1.709A2.05,2.05,0,0,0,6.064,2.562Z" transform="translate(37.899 9.418)"/>
    <path id="Shape-3" data-name="Shape" d="M11.3,0H8.865a.707.707,0,0,0-.583.308L4.92,5.24,3.495.5A.706.706,0,0,0,2.819,0H.423a.421.421,0,0,0-.4.556L2.708,8.4.183,11.953a.42.42,0,0,0,.344.664H2.963a.7.7,0,0,0,.579-.3L11.649.66A.42.42,0,0,0,11.3,0Z" transform="translate(50.991 9.645)"/>
    <path id="Shape-4" data-name="Shape" d="M3.021,14.014H.421a.42.42,0,0,1-.416-.485L2.054.591A.7.7,0,0,1,2.749,0H7.816a4.706,4.706,0,0,1,3.691,1.288,3.869,3.869,0,0,1,.647,3.257c-.5,3.182-2.444,4.8-5.767,4.8h-1.6a.7.7,0,0,0-.695.592L3.507,13.6A.489.489,0,0,1,3.021,14.014ZM5.581,2.8a.419.419,0,0,0-.417.355l-.536,3.38h.763c1.343,0,2.732,0,3.009-1.81a1.672,1.672,0,0,0-.245-1.406C7.709,2.8,6.846,2.8,5.931,2.8Z" transform="translate(62.549 4.979)" opacity="0.64"/>
    <path id="Shape-5" data-name="Shape" d="M4.031,9.8A3.811,3.811,0,0,1,.976,8.57a4.55,4.55,0,0,1-.9-3.712A5.576,5.576,0,0,1,5.488,0,3.4,3.4,0,0,1,8.352,1.013l.171.246L8.63.582A.418.418,0,0,1,9.047.227h2.424a.424.424,0,0,1,.323.149.418.418,0,0,1,.1.337L10.578,8.982a.7.7,0,0,1-.695.592H7.7a.424.424,0,0,1-.323-.148.42.42,0,0,1-.1-.338l.109-.671,0,0A4.742,4.742,0,0,1,4.031,9.8Zm2.03-7.237A2.714,2.714,0,0,0,3.343,4.887a2.054,2.054,0,0,0,.381,1.7,2.052,2.052,0,0,0,1.629.652A2.7,2.7,0,0,0,8.089,4.929a2.071,2.071,0,0,0-.41-1.709A2.049,2.049,0,0,0,6.062,2.562Z" transform="translate(74.036 9.418)" opacity="0.64"/>
    <path id="Shape-6" data-name="Shape" d="M2.085.356.005,13.53a.42.42,0,0,0,.416.485h2.09a.7.7,0,0,0,.7-.592L5.258.486A.421.421,0,0,0,4.842,0H2.5A.423.423,0,0,0,2.085.356Z" transform="translate(86.282 4.978)" opacity="0.64"/>
    <path id="Shape-7" data-name="Shape" d="M12.489,0h0q-.031.2-.071.406c-.916,4.685-4.051,6.3-8.055,6.3H2.324a.989.989,0,0,0-.979.835h0L.3,14.137l-.3,1.869a.52.52,0,0,0,.515.6H4.137A.869.869,0,0,0,5,15.875l.036-.183.681-4.3.044-.236a.868.868,0,0,1,.859-.732h.541c3.5,0,6.245-1.416,7.047-5.515A4.681,4.681,0,0,0,13.478.76,3.455,3.455,0,0,0,12.489,0Z" transform="translate(4.584 5.656)" opacity="0.64"/>
    <path id="Shape-8" data-name="Shape" d="M10.184.328Q9.974.267,9.752.217T9.293.131A11.367,11.367,0,0,0,7.5,0H2.05a.868.868,0,0,0-.859.732L.033,8.04,0,8.253a.989.989,0,0,1,.979-.835H3.017c4,0,7.139-1.619,8.055-6.3.027-.139.05-.274.071-.406A4.9,4.9,0,0,0,10.39.392C10.323.37,10.254.348,10.184.328Z" transform="translate(5.93 4.948)"/>
    <path id="Shape-9" data-name="Shape" d="M7.121,5.68a.868.868,0,0,1,.859-.731h5.446a11.367,11.367,0,0,1,1.8.131q.236.038.459.086t.433.111l.206.063a4.969,4.969,0,0,1,.753.316,4.412,4.412,0,0,0-.942-3.978C15.095.5,13.224,0,10.831,0H3.883A.992.992,0,0,0,2.9.836L.007,19.105a.6.6,0,0,0,.589.688h4.29l1.077-6.805Z" transform="translate(0)" opacity="0.81"/>
  </g>
</svg>
