<svg xmlns="http://www.w3.org/2000/svg" xmlns:xlink="http://www.w3.org/1999/xlink" width="15.101" height="21" viewBox="0 0 15.101 21">
  <defs>
    <clipPath id="clip-path">
      <rect width="15.101" height="21" fill="none"/>
    </clipPath>
  </defs>
  <g id="Icons_24px_Refresh" data-name="Icons – 24px / Refresh" clip-path="url(#clip-path)">
    <path id="Icon" d="M7.928,21h0L4.743,17.838,4.224,17.3l.519-.543,3.185-3.162L8.99,14.653,7.15,16.517l.1.007c.1.008.2.016.3.016a6.047,6.047,0,0,0,6.04-6.04,5.511,5.511,0,0,0-.307-1.958l1.133-1.133A6.838,6.838,0,0,1,15.1,10.5a7.572,7.572,0,0,1-7.55,7.55c-.109,0-.222-.008-.332-.016L7.1,18.027,8.99,19.939,7.929,21ZM.684,13.591h0A6.837,6.837,0,0,1,0,10.5,7.573,7.573,0,0,1,7.551,2.949c.1,0,.205.007.3.014L8,2.973,6.111,1.062,7.173,0l3.185,3.162.519.543-.519.543L7.173,7.409,6.111,6.347l1.84-1.864-.1-.007c-.1-.008-.2-.016-.3-.016A6.06,6.06,0,0,0,1.51,10.5a8.215,8.215,0,0,0,.307,1.958L.685,13.59Z" transform="translate(0 0)"/>
  </g>
</svg>
