<svg xmlns="http://www.w3.org/2000/svg" width="109.63" height="16.23" viewBox="0 0 109.63 16.23">
  <path id="Samsung_Pay" d="M74.318,16.23H71.765V.3h2.578v.994A5.114,5.114,0,0,1,77.747,0a5.857,5.857,0,0,1,5.545,6.114A5.853,5.853,0,0,1,77.723,12.2a5.371,5.371,0,0,1-3.4-1.292v5.318ZM77.456,2.287a3.6,3.6,0,0,0-3.356,3.8,3.382,3.382,0,1,0,6.712,0A3.6,3.6,0,0,0,77.456,2.287ZM103.063,16.23h-2.5l2.067-5L97.81.3h2.53l3.5,7.953L107.125.3h2.5l-6.566,15.931ZM90.32,12.178a5.853,5.853,0,0,1-5.569-6.089A5.853,5.853,0,0,1,90.32,0,5.242,5.242,0,0,1,93.7,1.243V.3h2.553V11.98H93.7V10.936A5.283,5.283,0,0,1,90.32,12.178Zm.292-9.867a3.16,3.16,0,0,0-2.371,1.1,4,4,0,0,0-.985,2.681,3.6,3.6,0,0,0,3.356,3.8,3.161,3.161,0,0,0,2.372-1.1,4.034,4.034,0,0,0,.985-2.681A3.6,3.6,0,0,0,90.612,2.311ZM3.5,12.079a4.289,4.289,0,0,1-2.435-.609A2.543,2.543,0,0,1,0,9.221V8.475H2.578v.969a.868.868,0,0,0,.973.895c.54,0,.85-.211.949-.646a1.545,1.545,0,0,0-.024-.745C4.26,8.415,3.52,8,2.737,7.555l-.007,0C1.635,6.936.4,6.239.17,5.045A3.155,3.155,0,0,1,.17,3.7C.442,1.9,2.145,1.517,3.526,1.517a4.41,4.41,0,0,1,2.128.441A2.158,2.158,0,0,1,6.761,4v.7H4.353V3.952A.828.828,0,0,0,3.541,3.2c-.025,0-.057,0-.087,0a.8.8,0,0,0-.876.671,1.874,1.874,0,0,0,0,.522c.114.5.836.889,1.672,1.34l.007,0c1.131.61,2.414,1.3,2.651,2.484a4.55,4.55,0,0,1,0,1.615C6.633,11.691,4.9,12.079,3.5,12.079Zm31.25-.025a4.249,4.249,0,0,1-2.392-.593A2.494,2.494,0,0,1,31.3,9.246V8.5h2.553v.945a.854.854,0,0,0,.949.869.825.825,0,0,0,.924-.646,1.431,1.431,0,0,0-.024-.72c-.208-.543-.96-.965-1.756-1.411l-.008,0c-1.069-.6-2.281-1.277-2.516-2.412A3.449,3.449,0,0,1,31.4,3.8c.238-1.414,1.39-2.162,3.332-2.162a4.384,4.384,0,0,1,2.116.438A2.135,2.135,0,0,1,37.938,4.1v.7H35.579V4.076a.8.8,0,0,0-.792-.751c-.027,0-.056,0-.084,0a.785.785,0,0,0-.876.646,1.709,1.709,0,0,0,0,.5c.1.491.825.882,1.66,1.335,1.118.606,2.385,1.292,2.621,2.443a4.375,4.375,0,0,1,0,1.591C37.971,10.851,37.278,12.054,34.752,12.054Zm9.023-.024c-2.078,0-3.207-.819-3.356-2.435,0-.042,0-.131-.01-.242l0-.071c-.006-.123-.011-.25-.011-.334V1.913h2.432V9.171a1.932,1.932,0,0,0,.024.373.861.861,0,0,0,.83.7.831.831,0,0,0,.095-.005.738.738,0,0,0,.089.005.884.884,0,0,0,.835-.7,1.931,1.931,0,0,0,.024-.373V1.913h2.432V8.948c0,.084-.006.212-.011.336l0,.066c-.006.112-.01.2-.01.244C46.981,11.21,45.852,12.029,43.774,12.029Zm20.063-.1a4.27,4.27,0,0,1-2.265-.547,2.379,2.379,0,0,1-1.116-1.889c-.024-.323-.024-.473-.024-.646V4.7a5.225,5.225,0,0,1,.042-.584l.007-.062c.239-2.013,1.97-2.435,3.38-2.435a4.28,4.28,0,0,1,2.256.519,2.416,2.416,0,0,1,1.125,1.917,5.725,5.725,0,0,1,.024.646V5.02H64.834V4.474A1.932,1.932,0,0,0,64.81,4.1a.882.882,0,0,0-.973-.721.873.873,0,0,0-.095-.005.888.888,0,0,0-.854.726,2.806,2.806,0,0,0-.049.472v4.5a1.932,1.932,0,0,0,.024.373.637.637,0,0,0,.215.449,1.035,1.035,0,0,0,.734.247.868.868,0,0,0,.973-.7,1.931,1.931,0,0,0,.024-.373V7.655h-.973V6.214h3.4V8.848c0,.173,0,.323-.024.646a2.332,2.332,0,0,1-1.106,1.889A4.3,4.3,0,0,1,63.837,11.929Zm-43.19-.2H18.239l.219-9.817H22.4l1.167,7.506h.049L24.8,1.913H28.7l.219,9.816H26.508l-.049-8.823H26.41L24.8,11.731H22.373L20.744,2.908H20.7l-.049,8.823Zm-9.533,0h-2.6l1.776-9.817h4.28l1.775,9.816H13.765L12.476,2.809h-.049l-1.313,8.922Zm41.05-.1H49.805V1.913H53.38l2.213,7.7h.049l-.122-7.7H57.9v9.717H54.474L52.091,3.653h-.049l.122,7.978Z" transform="translate(0 0)"/>
</svg>
