<svg xmlns="http://www.w3.org/2000/svg" xmlns:xlink="http://www.w3.org/1999/xlink" width="18.498" height="19" viewBox="0 0 18.498 19">
  <defs>
    <clipPath id="clip-path">
      <rect width="18.498" height="19" fill="none"/>
    </clipPath>
  </defs>
  <g id="Icons_24px_Settings" data-name="Icons – 24px / Settings" clip-path="url(#clip-path)">
    <path id="Icon" d="M11.3,19H7.194l-.114-.594-.434-2.169a7.336,7.336,0,0,1-1.9-1.119l-2.124.731-.571.182-.3-.525L.3,12.994,0,12.469l.434-.388,1.644-1.439-.014-.081-.013-.081,0-.025,0-.017a5.685,5.685,0,0,1-.1-.936,5.662,5.662,0,0,1,.1-.934l0-.02c.011-.063.022-.126.032-.188L.434,6.919,0,6.531l.3-.526L1.759,3.494l.3-.525.571.183,2.124.731a7.288,7.288,0,0,1,1.9-1.12L7.079.594,7.194,0H11.3l.114.594.434,2.169a7.3,7.3,0,0,1,1.9,1.12l2.124-.731.571-.183.3.525L18.2,6.006l.3.526-.434.388L16.42,8.358c.011.068.022.135.033.2a5.649,5.649,0,0,1,.1.94,5.615,5.615,0,0,1-.1.938l-.008.051-.008.051-.017.1,1.644,1.439.434.388-.3.526-1.462,2.512-.3.525-.571-.182-2.124-.731a7.29,7.29,0,0,1-1.9,1.119l-.434,2.169L11.3,19ZM4.978,13.5h0l.319.3a5.821,5.821,0,0,0,2.215,1.279l.411.137.091.434.365,1.9h1.736l.365-1.9.091-.434.411-.137A5.821,5.821,0,0,0,13.2,13.793l.319-.3.411.137,1.85.64.868-1.485-1.462-1.3-.32-.274.092-.435a6.042,6.042,0,0,0,0-2.557l-.114-.434.343-.274,1.462-1.3L15.78,4.727l-1.85.64-.411.137-.319-.3a5.821,5.821,0,0,0-2.215-1.279l-.411-.137-.091-.434-.365-1.9H8.381l-.365,1.9-.091.434-.411.137A5.821,5.821,0,0,0,5.3,5.207l-.319.3-.411-.137-1.85-.64L1.849,6.212l1.462,1.3.343.274-.114.434a6.042,6.042,0,0,0,0,2.557l.114.435-.343.274-1.462,1.3.868,1.485,1.85-.64.41-.137Zm4.27-.343A3.654,3.654,0,1,1,12.9,9.5,3.657,3.657,0,0,1,9.248,13.154Zm0-5.845a2.181,2.181,0,1,0,1.554.639A2.179,2.179,0,0,0,9.248,7.308Z" transform="translate(0 0)"/>
  </g>
</svg>
